# AST/ASF file generated using VICON BodyLanguage
# -----------------------------------------------
:version 1.10
:name VICON
:units
  mass 1.0
  length 0.45
  angle deg
:documentation
   .ast/.asf automatically generated from VICON data using
   VICON BodyBuilder and BodyLanguage model FoxedUp or BRILLIANT.MOD
:root
   order TX TY TZ RX RY RZ
   axis XYZ
   position 0 0 0  
   orientation 0 0 0 
:bonedata
  begin
     id 1 
     name lhipjoint
     direction 0.643272 -0.706573 0.294883 
     length 2.58915 
     axis 0 0 0  XYZ
  end
  begin
     id 2 
     name lfemur
     direction 0.34202 -0.939693 0  
     length 7.06802  
     axis 0 0 20  XYZ
    dof rx ry rz
    limits (-160.0 20.0)
           (-70.0 70.0)
           (-60.0 70.0)
  end
  begin
     id 3 
     name ltibia
     direction 0.34202 -0.939693 0   
     length 7.94147   
     axis 0 0 20   XYZ
    dof rx
    limits (-10.0 170.0)
  end
  begin
     id 4 
     name lfoot
     direction 0.0435058 -0.119531 0.991877   
     length 1.8399   
     axis -90 7.62852e-016 20   XYZ
    dof rx rz
    limits (-45.0 90.0)
           (-70.0 20.0)
  end
  begin
     id 5 
     name ltoes
     direction 1.53505e-011 -4.22157e-011 1   
     length 0.934412   
     axis -90 7.62852e-016 20   XYZ
    dof rx
    limits (-90.0 20.0)
  end
  begin
     id 6 
     name rhipjoint
     direction -0.636801 -0.711547 0.296959   
     length 2.57105  
     axis 0 0 0  XYZ 
  end
  begin
     id 7 
     name rfemur
     direction -0.34202 -0.939693 0   
     length 7.03285   
     axis 0 0 -20   XYZ
    dof rx ry rz
    limits (-160.0 20.0)
           (-70.0 70.0)
           (-70.0 60.0)
  end
  begin
     id 8 
     name rtibia
     direction -0.34202 -0.939693 0   
     length 7.99111   
     axis 0 0 -20   XYZ
    dof rx
    limits (-10.0 170.0)
 end
 begin
     id 9 
     name rfoot
     direction -0.0783088 -0.215152 0.973436   
     length 1.98785  
     axis -90 -7.62852e-016 -20   XYZ
    dof rx rz
    limits (-45.0 90.0)
           (-20.0 70.0)
  end
  begin
     id 10 
     name rtoes
     direction -1.53606e-011 -4.21943e-011 1   
     length 1.001   
     axis -90 -7.62852e-016 -20   XYZ
    dof rx
    limits (-90.0 20.0)
  end
  begin
     id 11 
     name lowerback
     direction 0.00141527 0.998403 -0.0564763   
     length 2.30486   
     axis 0 0 0   XYZ
    dof rx ry rz
    limits (-20.0 45.0)
           (-30.0 30.0)
           (-30.0 30.0)
  end
  begin
     id 12 
     name upperback
     direction 0.0125137 0.999915 0.00361315   
     length 2.30697   
     axis 0 0 0   XYZ
    dof rx ry rz
    limits (-20.0 45.0)
           (-30.0 30.0)
           (-30.0 30.0)
  end
  begin
     id 13 
     name thorax
     direction 0.0136417 0.999471 0.0295116   
     length 2.31005   
     axis 0 0 0   XYZ
    dof rx ry rz
    limits (-20.0 45.0)
           (-30.0 30.0)
           (-30.0 30.0)
  end
  begin
     id 14 
     name lowerneck
     direction 0.0766806 0.997047 0.00422047   
     length 1.68825   
     axis 0 0 0   XYZ
    dof rx ry rz
    limits (-20.0 45.0)
           (-30.0 30.0)
           (-30.0 30.0)
  end
  begin
     id 15 
     name upperneck
     direction -0.143512 0.985106 -0.0947088   
     length 1.69772   
     axis 0 0 0   XYZ
    dof rx ry rz
    limits (-20.0 45.0)
           (-30.0 30.0)
           (-30.0 30.0)
  end
  begin
     id 16
     name head
     direction -0.0539128 0.997849 -0.0372864  
     length 1.71187  
     axis 0 0 0   XYZ
    dof rx ry rz
    limits (-20.0 45.0)
           (-30.0 30.0)
           (-30.0 30.0)
  end
  begin
     id 17 
     name lclavicle
     direction 0.978251 0.207416 -0.00165765  
     length 3.35399  
     axis 0 0 0   XYZ
    dof ry rz
    limits (-20.0 10.0)
           (0.0 20.0)
  end
  begin
     id 18 
     name lhumerus
     direction 1 -4.48966e-011 -1.32191e-028   
     length 5.70706   
     axis 180 -30 -90   XYZ
    dof rx ry rz
    limits (-60.0 90.0)
           (-90.0 90.0)
           (-90.0 90.0)
  end
  begin
     id 19
     name lradius
     direction 1 -4.48976e-011 9.36106e-027   
     length 3.33243   
     axis 180 -30 -90   XYZ
    dof rx
    limits (-10.0 170.0)
  end
  begin
     id 20
     name lwrist
     direction 1 -4.48976e-011 1.1555e-026   
     length 1.66621   
     axis -5.7412e-015 90 90   XYZ
    dof ry
    limits (-180.0 0.0)
 end
  begin
     id 21 
     name lhand
     direction 1 -4.48939e-011 2.31113e-026   
     length 0.792687   
     axis -1.47463e-014 90 90   XYZ
    dof rx rz
    limits (-90.0 90.0)
           (-45.0 45.0)
  end
  begin
     id 22 
     name lfingers
     direction 1 -4.48866e-011 4.62274e-026   
     length 0.639085   
     axis -2.94925e-014 90 90   XYZ
    dof rx
    limits (0.0 90.0)
  end
  begin
     id 23
     name lthumb
     direction 0.707107 -6.34847e-011 0.707107   
     length 0.917601   
     axis -90 45 -6.68868e-015   XYZ
    dof rx rz
    limits (-45.0 45.0)
           (-45.0 45.0)
  end
  begin
     id 24 
     name rclavicle
     direction -0.981813 0.185514 0.0403428   
     length 3.47271  
     axis 0 0 0   XYZ 
    dof ry rz
    limits (-10.0 20.0)
           (-20.0 0.0)
  end
  begin
     id 25 
     name rhumerus
     direction -1 -4.48972e-011 -6.58544e-029  
     length 5.88176   
     axis 180 30 90   XYZ
    dof rx ry rz
    limits (-90.0 60.0)
           (-90.0 90.0)
           (-90.0 90.0)
  end
  begin
     id 26 
     name rradius
     direction -1 -4.48964e-011 8.36306e-027   
     length 3.28156   
     axis 180 30 90   XYZ
    dof rx
    limits (-10.0 170.0)
  end
  begin
     id 27 
     name rwrist
     direction -1 -4.48903e-011 1.15562e-026   
     length 1.64078   
     axis -5.7412e-015 -90 -90   XYZ
    dof ry
    limits (-180.0 0.0)
  end
  begin
     id 28
     name rhand
     direction -1 -4.49055e-011 2.31074e-026   
     length 0.863125   
     axis -1.47463e-014 -90 -90   XYZ
    dof rx rz
    limits (-90.0 90.0)
           (-45.0 45.0)
  end
  begin
     id 29
     name rfingers
     direction -1 -4.48994e-011 4.62188e-026   
     length 0.695873   
     axis -2.94925e-014 -90 -90   XYZ
    dof rx
    limits (0.0 90.0)
  end
  begin
     id 30
     name rthumb
     direction -0.707107 -6.35058e-011 0.707107   
     length 0.999139   
     axis -90 -45 6.68868e-015   XYZ
    dof rx rz
    limits (-45.0 45.0)
           (-45.0 45.0)
  end
:hierarchy
  begin
    root lhipjoint rhipjoint lowerback
    lhipjoint lfemur
    lfemur ltibia
    ltibia lfoot
    lfoot ltoes
    rhipjoint rfemur
    rfemur rtibia
    rtibia rfoot
    rfoot rtoes
    lowerback upperback
    upperback thorax
    thorax lowerneck lclavicle rclavicle
    lowerneck upperneck
    upperneck head
    lclavicle lhumerus
    lhumerus lradius
    lradius lwrist
    lwrist lhand lthumb
    lhand lfingers
    rclavicle rhumerus
    rhumerus rradius
    rradius rwrist
    rwrist rhand rthumb
    rhand rfingers
  end

#!OML:ASF \\Waltz\H\Terrain\Patient Classification 1\Animal2\Wednesday\Animal2.ASF
:FULLY-SPECIFIED
:DEGREES
1295
root -0.506677 16.8041 1.80824 -0.982734 -15.1161 7.06602
lowerback 6.64418 -1.31442 3.82076
upperback -2.31908 -1.56257 -2.51395
thorax -6.34218 -0.981221 -4.60368
lowerneck 19.5838 19.6375 16.5731
upperneck -17.5424 26.6102 -34.2035
head -0.846194 15.5376 -13.8758
rclavicle 4.94228e-014 -1.07344e-014
rhumerus 39.6576 51.7527 -43.7804
rradius 86.9395
rwrist -19.1704
rhand -9.05547 19.4914
rfingers 7.12502
rthumb 16.893 -9.79389
lclavicle 4.94228e-014 -1.07344e-014
lhumerus 20.8562 14.2598 25.8824
lradius 96.8577
lwrist -4.67714
lhand -52.4896 14.6524
lfingers 7.12502
lthumb -24.9768 43.0398
rfemur -24.3896 10.3017 13.8551
rtibia 54.8627
rfoot -30.6283 5.29308
rtoes 29.6278
lfemur -7.98373 -5.30276 -5.42671
ltibia 33.2946
lfoot -19.0362 0.160274
ltoes -16.8155
1296
root -0.477778 16.7812 1.83216 -1.11834 -15.4876 7.25022
lowerback 6.68336 -1.23265 3.87934
upperback -2.25147 -1.44755 -2.53492
thorax -6.28252 -0.924423 -4.67333
lowerneck 19.7663 19.8877 16.5062
upperneck -17.5324 26.9594 -34.3491
head -0.766719 15.7407 -13.87
rclavicle 3.88127e-014 1.43125e-014
rhumerus 39.1735 52.1088 -44.5518
rradius 87.1283
rwrist -19.2817
rhand -9.44028 19.8126
rfingers 7.12502
rthumb 16.5226 -9.50388
lclavicle 3.88127e-014 1.43125e-014
lhumerus 20.1551 13.3444 25.3861
lradius 96.7303
lwrist -5.65376
lhand -52.4081 13.7483
lfingers 7.12502
lthumb -24.8986 42.1466
rfemur -24.4483 10.5211 13.5443
rtibia 55.1764
rfoot -30.9268 5.14532
rtoes 28.3565
lfemur -6.95264 -5.85111 -5.24608
ltibia 31.7871
lfoot -18.8287 0.367848
ltoes -15.3096
1297
root -0.445666 16.7656 1.86374 -1.22992 -15.9106 7.31003
lowerback 6.73195 -1.16532 4.12761
upperback -2.19782 -1.33176 -2.51644
thorax -6.24714 -0.874562 -4.80923
lowerneck 19.9549 20.1547 16.363
upperneck -17.6017 27.2951 -34.4734
head -0.729591 15.9411 -13.8599
rclavicle 2.17421e-015 7.95139e-016
rhumerus 38.2731 52.4889 -45.5487
rradius 87.272
rwrist -19.3714
rhand -9.63652 20.154
rfingers 7.12502
rthumb 16.3336 -9.17815
lclavicle 2.17421e-015 7.95139e-016
lhumerus 19.4012 12.4294 24.9357
lradius 96.2796
lwrist -6.98927
lhand -52.6725 13.4908
lfingers 7.12502
lthumb -25.152 41.8538
rfemur -24.4807 10.7816 13.3626
rtibia 55.5097
rfoot -31.3281 4.91406
rtoes 27.0391
lfemur -5.86198 -6.20651 -5.00264
ltibia 30.2539
lfoot -18.5969 0.787748
ltoes -16.2944
1298
root -0.412421 16.754 1.89692 -1.40286 -16.3842 7.70586
lowerback 6.69775 -1.10256 4.03033
upperback -2.09985 -1.2604 -2.56188
thorax -6.11376 -0.831104 -4.81099
lowerneck 20.0006 20.4704 16.0392
upperneck -17.7157 27.6264 -34.4968
head -0.731133 16.1295 -13.7835
rclavicle -5.9536e-014 7.15625e-015
rhumerus 37.4192 52.8502 -46.5172
rradius 87.3346
rwrist -19.3221
rhand -9.65254 20.4475
rfingers 7.12502
rthumb 16.3182 -8.88595
lclavicle -5.9536e-014 7.15625e-015
lhumerus 18.3802 11.7028 24.3085
lradius 95.913
lwrist -8.23362
lhand -53.0503 14.3206
lfingers 7.12502
lthumb -25.514 42.6323
rfemur -24.6467 11.0481 12.7802
rtibia 55.8723
rfoot -31.6158 4.93739
rtoes 26.4339
lfemur -4.72645 -6.51822 -5.18407
ltibia 28.7078
lfoot -18.3353 1.07716
ltoes -16.2491
1299
root -0.38081 16.7418 1.92412 -1.54222 -16.7616 8.30738
lowerback 6.66363 -1.02987 3.67563
upperback -2.08773 -1.20203 -2.6568
thorax -6.06758 -0.789571 -4.7168
lowerneck 20.0405 20.6738 15.8649
upperneck -17.6061 27.8896 -34.4729
head -0.672786 16.2651 -13.7029
rclavicle -3.99247e-014 -1.35174e-014
rhumerus 37.192 53.2681 -47.0048
rradius 87.4003
rwrist -19.3666
rhand -9.87682 20.4169
rfingers 7.12502
rthumb 16.1023 -8.93411
lclavicle -3.99247e-014 -1.35174e-014
lhumerus 17.4464 10.9575 23.6619
lradius 95.7584
lwrist -8.89796
lhand -53.1084 14.0534
lfingers 7.12502
lthumb -25.5696 42.3571
rfemur -24.9782 11.2327 11.9607
rtibia 56.2509
rfoot -31.7952 5.03926
rtoes 26.8481
lfemur -3.77654 -6.75602 -5.58121
ltibia 27.1905
lfoot -17.8729 1.41959
ltoes -15.5939
1300
root -0.346934 16.7322 1.95443 -1.41354 -17.1507 8.4616
lowerback 6.49852 -0.943089 3.81938
upperback -2.15643 -1.07838 -2.66389
thorax -6.03566 -0.734852 -4.8223
lowerneck 20.2157 20.8261 15.8342
upperneck -17.5314 28.1256 -34.5277
head -0.61481 16.3985 -13.6895
rclavicle -4.96061e-014 -3.73715e-014
rhumerus 37.2078 53.7413 -47.2053
rradius 87.4655
rwrist -19.5353
rhand -10.1687 20.3013
rfingers 7.12502
rthumb 15.8212 -9.07227
lclavicle -4.96061e-014 -3.73715e-014
lhumerus 17.245 10.0637 23.4957
lradius 94.7957
lwrist -9.9474
lhand -53.3337 13.232
lfingers 7.12502
lthumb -25.7853 41.5046
rfemur -25.4184 11.493 11.5963
rtibia 56.5794
rfoot -32.0228 5.03693
rtoes 27.4646
lfemur -3.04268 -6.91473 -5.49575
ltibia 25.715
lfoot -17.3501 1.89929
ltoes -16.9273
1301
root -0.306469 16.7181 1.98895 -1.28308 -17.5544 8.33888
lowerback 6.2891 -0.876447 4.2896
upperback -2.11407 -0.951949 -2.6191
thorax -5.86617 -0.683731 -5.05858
lowerneck 20.4846 20.9577 15.832
upperneck -17.7983 28.2695 -34.8529
head -0.633115 16.5302 -13.8222
rclavicle 2.92835e-014 2.38542e-014
rhumerus 37.2352 54.1109 -47.3074
rradius 87.541
rwrist -19.6005
rhand -10.1041 20.4036
rfingers 7.12502
rthumb 15.8834 -8.96497
lclavicle 2.92835e-014 2.38542e-014
lhumerus 17.0738 9.35665 23.3753
lradius 93.7145
lwrist -11.1003
lhand -53.5356 13.2049
lfingers 7.12502
lthumb -25.9788 41.4493
rfemur -25.6712 11.7886 11.5214
rtibia 56.8497
rfoot -32.3107 4.98809
rtoes 26.9535
lfemur -2.21125 -6.93419 -5.15508
ltibia 24.3023
lfoot -16.7835 2.44559
ltoes -19.1099
1302
root -0.267938 16.7048 2.0215 -1.32245 -17.8176 8.50302
lowerback 6.13927 -0.871696 4.47546
upperback -2.00298 -0.940449 -2.71027
thorax -5.66792 -0.678854 -5.26287
lowerneck 20.5748 21.0904 15.8687
upperneck -18.0917 28.4087 -35.1016
head -0.638962 16.6385 -13.9071
rclavicle 9.0812e-015 1.82882e-014
rhumerus 37.2411 54.3303 -47.4395
rradius 87.6905
rwrist -19.4633
rhand -10.0566 20.4139
rfingers 7.12502
rthumb 15.9291 -8.95108
lclavicle 9.0812e-015 1.82882e-014
lhumerus 16.1635 8.96449 22.4782
lradius 93.4241
lwrist -11.5381
lhand -53.208 13.728
lfingers 7.12502
lthumb -25.665 42.018
rfemur -25.776 11.9288 11.1645
rtibia 57.0787
rfoot -32.5717 5.02272
rtoes 26.1039
lfemur -1.40639 -6.95155 -5.15649
ltibia 23.0176
lfoot -15.9906 2.91845
ltoes -20.0623
1303
root -0.228954 16.6982 2.04993 -1.29494 -18.1501 8.8705
lowerback 5.99218 -0.859067 4.5035
upperback -2.00141 -0.938824 -2.92509
thorax -5.58752 -0.681611 -5.50792
lowerneck 20.4866 21.2996 15.916
upperneck -18.1794 28.699 -35.0034
head -0.586487 16.7649 -13.8063
rclavicle 1.43467e-014 -1.03368e-014
rhumerus 37.3324 54.5776 -47.5382
rradius 87.7741
rwrist -19.3053
rhand -10.2534 20.7349
rfingers 7.12502
rthumb 15.7396 -8.64507
lclavicle 1.43467e-014 -1.03368e-014
lhumerus 15.1402 8.6054 21.2696
lradius 93.1517
lwrist -11.8609
lhand -52.7907 14.1078
lfingers 7.12502
lthumb -25.2653 42.4549
rfemur -26.1151 12.0826 10.5499
rtibia 57.3121
rfoot -32.6818 5.2104
rtoes 25.7063
lfemur -0.781573 -7.10009 -5.40117
ltibia 21.7827
lfoot -14.8203 3.1171
ltoes -19.2632
